PathFileType	4	(X/Y/Z)	C:/Users/opensim2020/Desktop/walking_exp_matlab/subject01_walking08_straight_04.trc	
DataRate	CameraRate	NumFrames	NumMarkers	Units	OrigDataRate	OrigDataStartFrame	OrigNumFrames	
100.00	100.00	8	43	mm	100.00	3819	256	
Frame#	Time	LFHD			RFHD			LBHD			RBHD			C7			T10			CLAV			STRN			RBAK			LSHO			LUPA			LELB			LFRM			LWRA			LWRB			LFIN			RSHO			RUPA			RELB			RFRM			RWRA			RWRB			RFIN			LASI			RASI			LPSI			RPSI			LTHI			LKNE			LTIB			LANK			LHEE			LTOE			RTHI			RKNE			RTIB			RANK			RHEE			RTOE			*39			*40			*41			*42			
		X1	Y1	Z1	X2	Y2	Z2	X3	Y3	Z3	X4	Y4	Z4	X5	Y5	Z5	X6	Y6	Z6	X7	Y7	Z7	X8	Y8	Z8	X9	Y9	Z9	X10	Y10	Z10	X11	Y11	Z11	X12	Y12	Z12	X13	Y13	Z13	X14	Y14	Z14	X15	Y15	Z15	X16	Y16	Z16	X17	Y17	Z17	X18	Y18	Z18	X19	Y19	Z19	X20	Y20	Z20	X21	Y21	Z21	X22	Y22	Z22	X23	Y23	Z23	X24	Y24	Z24	X25	Y25	Z25	X26	Y26	Z26	X27	Y27	Z27	X28	Y28	Z28	X29	Y29	Z29	X30	Y30	Z30	X31	Y31	Z31	X32	Y32	Z32	X33	Y33	Z33	X34	Y34	Z34	X35	Y35	Z35	X36	Y36	Z36	X37	Y37	Z37	X38	Y38	Z38	X39	Y39	Z39	X40	Y40	Z40	X41	Y41	Z41	X42	Y42	Z42	X43	Y43	Z43	

161	1.600	1586.21570	-89.90700	1662.71570	1473.51074	-106.68455	1668.45874	1574.87219	30.78526	1631.85352	1454.58997	16.37249	1637.63049	1528.93335	85.71174	1433.15039	1509.62524	120.48834	1139.11499	1526.15747	-56.57618	1364.78845	1527.45300	-99.92761	1210.24573	1445.17371	140.49548	1238.79382	1688.57336	1.79536	1390.53516	1772.71191	18.54821	1204.79211	1776.16907	15.05080	1052.70569	1802.01282	-45.73611	956.12085	1783.68652	-149.47427	862.34387	1808.68274	-96.57938	845.56433	1818.52466	-159.08192	788.67499	1374.85632	6.46310	1395.33887	1271.67932	66.88302	1197.14893	1268.83643	67.75372	1071.10925	1238.20313	34.34755	954.57739	1258.24487	-53.20392	843.61859	1218.37854	-11.08476	841.35925	1222.36255	-53.27897	766.74072	1613.38611	-52.98344	932.43304	1396.46704	-55.29212	940.16498	1556.27783	132.62941	941.29755	1410.82690	127.87479	945.24493	1651.61902	-42.37745	598.62469	1628.65991	-41.95420	465.12576	1633.39575	12.18368	282.24008	1577.99170	49.98570	69.15868	1525.84290	97.09274	39.67923	1580.45313	-96.50648	33.06829	1322.13904	-83.80636	615.51733	1338.47668	-120.00604	461.33578	1335.03540	4.87139	336.17957	1379.95239	125.13110	168.25711	1435.43945	181.04582	154.37688	1370.32520	30.62298	62.82766	1496.45459	-97.98943	1702.71448	-3101.95801	1973.10254	1023.30151	-3140.62622	2012.52380	1021.95233			 
162	1.610	1586.27966	-97.02854	1662.69702	1473.58350	-113.83561	1668.27112	1575.03540	23.68909	1632.02710	1454.73523	9.35730	1637.71399	1529.36389	79.03366	1433.39673	1510.32068	114.19139	1139.36511	1526.93347	-63.66053	1365.18945	1528.09998	-106.38112	1210.26929	1445.88611	134.02666	1238.95972	1688.98962	-4.94616	1390.82349	1773.42505	11.36791	1205.25696	1777.29346	6.76995	1053.09229	1803.13794	-55.69242	957.48590	1784.84497	-161.21484	865.72083	1809.69617	-108.63530	847.93237	1819.77087	-172.14403	792.28723	1375.14856	-0.26115	1395.35962	1272.27271	60.73666	1197.18225	1269.47009	62.03890	1071.22925	1238.83191	29.69484	954.50439	1258.41748	-57.03893	842.77472	1218.60742	-14.21635	840.80957	1222.79919	-56.00776	765.83282	1614.09399	-58.95926	932.27924	1397.23535	-61.72840	940.66034	1556.61389	126.67976	941.32855	1411.03943	121.49332	945.26801	1651.94324	-45.17830	598.24158	1629.15356	-43.98182	464.72488	1633.63831	10.82245	282.05750	1577.98206	49.86555	69.25621	1525.93811	97.33150	40.10418	1580.57007	-96.45711	33.01576	1322.85913	-93.29556	616.92310	1339.56396	-131.21429	462.94211	1335.81201	-10.26090	333.55066	1380.87939	104.64783	161.55077	1436.25671	160.33025	145.69266	1369.99438	5.23974	61.09443	1496.50891	-105.09931	1702.56030	-3101.99097	1973.13354	1023.56366	-3140.64844	2012.60193	1022.05792			 
163	1.620	1586.30994	-104.12561	1662.67932	1473.57861	-120.86155	1668.11731	1575.16248	16.64716	1632.17493	1454.87146	2.33535	1637.65234	1529.74780	72.32230	1433.59753	1510.88684	107.80363	1139.58838	1527.18787	-70.16430	1364.98767	1528.74866	-112.90266	1210.20850	1446.58618	127.51777	1239.05383	1689.34692	-11.64931	1391.12085	1773.95020	4.30390	1205.71606	1778.37476	-1.47641	1053.48254	1804.18372	-65.62792	958.93030	1785.85681	-172.84531	869.15497	1810.72412	-120.66178	850.39221	1820.85559	-185.21571	796.00525	1375.46619	-7.00166	1395.24512	1272.85693	54.54716	1197.14270	1270.24158	56.39888	1071.29260	1239.38403	25.01672	954.44122	1258.53638	-60.73335	841.90503	1218.91443	-17.84523	840.35254	1222.89465	-58.64280	764.84601	1614.47339	-64.43384	932.02136	1397.95605	-68.14711	940.99530	1556.86755	120.60082	941.37628	1411.34326	115.00222	945.37433	1652.39404	-48.23250	597.86176	1629.49280	-46.21555	464.25183	1633.76355	9.35117	281.85242	1577.90698	49.72688	69.20546	1526.10413	97.58697	40.58782	1580.49219	-96.60871	32.92471	1323.51770	-102.50835	618.20630	1340.76831	-141.72070	464.60855	1336.06812	-24.91961	330.92023	1381.41162	83.65539	154.91277	1436.62756	138.46373	136.59317	1370.16321	-19.75871	58.84671	1496.50476	-112.20896	1702.43945	-3102.02808	1972.99219	1023.74866	-3140.74805	2012.52551	1021.98999			 
164	1.630	1586.32983	-111.22090	1662.67456	1473.58923	-127.94739	1667.93665	1575.24097	9.58554	1632.31506	1454.70483	-4.72249	1637.72729	1530.14929	65.59022	1433.86096	1511.41333	101.40530	1139.78101	1527.56396	-76.87387	1365.03259	1529.31030	-119.43835	1210.19263	1447.18555	120.96173	1239.10828	1689.66125	-18.36597	1391.41528	1774.34583	-2.81516	1206.09546	1779.37585	-9.73891	1053.89453	1805.14868	-75.59093	960.35101	1786.75513	-184.41580	872.62659	1811.61267	-132.62486	852.87549	1821.81042	-198.16110	799.84833	1375.69690	-13.74072	1395.15381	1273.32275	48.39442	1197.08813	1270.84180	50.77426	1071.41162	1239.88623	20.41975	954.44116	1258.64282	-64.23458	841.06775	1219.21924	-21.30313	839.93402	1222.87952	-61.49230	763.97443	1615.08069	-70.87531	931.96777	1398.57983	-74.53239	941.15399	1557.09998	114.52898	941.46948	1411.54126	108.56953	945.47656	1652.80066	-51.60038	597.40448	1629.85522	-48.50642	463.76733	1633.82568	7.89791	281.68640	1577.81140	49.63145	69.21636	1526.05481	97.56715	40.79254	1580.51794	-96.67644	32.91946	1324.09424	-111.29735	619.37897	1341.79468	-151.80524	465.81375	1336.83826	-39.89309	328.06882	1381.54138	62.18528	148.35382	1436.74561	116.28216	126.99764	1370.09912	-45.12700	56.72814	1496.45447	-119.39548	1702.36096	-3101.90942	1973.10999	1023.42694	-3140.55225	2012.62317	1022.12231			 
165	1.640	1586.20667	-118.41029	1662.62598	1473.46985	-134.99330	1667.71753	1575.29358	2.47643	1632.43298	1454.93188	-11.71643	1637.58093	1530.26160	58.82267	1433.86584	1511.85645	94.96343	1139.91699	1528.00293	-83.93736	1365.20959	1529.79541	-125.97231	1210.07373	1447.67725	114.37733	1239.17322	1689.83032	-25.08260	1391.58289	1774.87598	-10.03177	1206.51501	1780.31714	-17.93346	1054.21875	1805.95483	-85.61646	961.80756	1787.50903	-195.88879	876.14417	1812.46008	-144.55011	855.39117	1822.64807	-211.07245	803.68182	1375.87744	-20.52917	1395.04517	1273.77759	42.24176	1196.99963	1271.27454	45.06013	1071.44128	1240.26709	15.62336	954.31287	1258.54456	-68.18781	840.23676	1219.39075	-24.93244	839.43671	1222.87378	-64.48164	763.26788	1615.61133	-76.94402	931.70874	1399.17810	-80.98214	941.22058	1557.30933	108.44587	941.56201	1411.70581	102.15290	945.64587	1653.00049	-54.87452	596.91937	1630.08838	-50.94844	463.27612	1633.86023	6.42741	281.55951	1577.79944	49.46025	69.39944	1526.03674	97.55994	41.13297	1580.48230	-96.78110	32.76958	1324.72815	-119.72541	620.35834	1342.68091	-161.45370	466.94888	1337.54700	-54.86555	325.06183	1381.81079	40.09016	141.42992	1436.96802	93.77403	117.98342	1370.20959	-70.99315	55.00900	1496.28772	-126.52805	1702.15503	-3101.90967	1973.12024	1023.42590	-3140.77979	2012.54858	1022.14349			 
166	1.650	1586.07703	-125.47637	1662.57996	1473.30652	-142.06902	1667.48572	1575.21912	-4.60101	1632.50586	1454.60278	-18.76653	1637.60168	1530.35779	51.97070	1433.90784	1512.28101	88.51881	1140.02185	1528.00024	-90.24529	1364.82520	1530.22473	-132.49255	1209.87817	1448.00403	107.70456	1239.13440	1690.06067	-31.75299	1391.79639	1775.43103	-17.45533	1206.88391	1781.19556	-26.11160	1054.54089	1806.70874	-95.45285	963.24579	1788.16052	-207.25378	879.69690	1813.12598	-156.32393	857.96558	1823.29236	-223.89494	807.52466	1376.03455	-27.34739	1394.83569	1274.16382	35.99334	1196.87573	1271.72144	39.33855	1071.44824	1240.57922	10.88837	954.16071	1258.65198	-71.97146	839.39429	1219.58264	-28.74018	839.08795	1222.79163	-67.56842	762.44531	1616.12952	-82.84322	931.29352	1399.78052	-87.46677	941.31830	1557.46826	102.38537	941.63892	1411.80176	95.68725	945.76489	1653.21118	-58.36115	596.36420	1630.31506	-53.42326	462.76425	1633.93042	4.97871	281.43475	1577.69678	49.26829	69.45800	1525.95752	97.46107	41.39892	1580.55408	-96.76552	32.73824	1325.17432	-127.80141	621.00824	1343.77026	-170.11931	468.07443	1337.53857	-69.26917	322.15179	1382.21326	18.03509	134.54683	1437.01074	70.51313	108.85050	1370.34131	-96.99751	53.26322	1496.13000	-133.36681	1701.75757	-3101.90015	1973.16809	1023.46967	-3140.56372	2012.51013	1021.98535			 
167	1.660	1585.87268	-132.58693	1662.48364	1473.05786	-149.11234	1667.19995	1575.15918	-11.64706	1632.54028	1454.76477	-25.71801	1637.33057	1530.54102	45.10669	1434.00854	1512.59949	82.00926	1140.08411	1528.21936	-97.08205	1364.74255	1530.62927	-139.14725	1209.72461	1448.32312	101.06145	1239.14685	1690.15857	-38.52966	1391.92419	1775.88391	-24.76661	1207.19824	1781.99756	-34.16540	1054.83569	1807.36743	-105.19330	964.65137	1788.71216	-218.52554	883.24194	1813.68176	-168.06171	860.53894	1823.82874	-236.59053	811.37897	1376.30945	-33.94042	1394.36975	1274.55957	29.90201	1196.78650	1272.15540	33.71635	1071.39758	1240.83875	6.17536	954.05670	1258.77209	-75.80861	838.53662	1219.50061	-32.55640	838.51630	1222.71692	-70.81685	761.76947	1616.60681	-88.78979	930.94244	1400.27979	-93.89742	941.27966	1557.53503	96.29704	941.66107	1411.88928	89.23374	945.89600	1653.31665	-62.01665	595.83368	1630.42444	-55.91621	462.22122	1633.98181	3.58657	281.32709	1577.61609	49.03838	69.59054	1526.03735	97.58808	41.92631	1580.46497	-96.91315	32.69986	1325.61292	-135.39027	621.64966	1344.33630	-179.35208	468.79816	1338.32910	-84.30044	319.08359	1382.31641	-4.42734	127.89866	1437.12671	46.99438	100.16806	1370.65271	-123.01627	51.81672	1495.84436	-140.63823	1701.70532	-3101.94019	1973.11621	1023.49402	-3140.69946	2012.53198	1021.98895			 
168	1.670	1585.61743	-139.70891	1662.33972	1472.74573	-156.08183	1666.88159	1574.98328	-18.71455	1632.47473	1454.59155	-32.69666	1637.13794	1530.56787	38.22891	1433.88123	1512.85266	75.52576	1140.12146	1528.01978	-102.64516	1364.03723	1530.90771	-145.77441	1209.45569	1448.49023	94.34850	1239.06970	1690.25012	-45.36040	1391.98706	1776.34094	-32.09443	1207.50098	1782.68237	-42.20286	1055.06201	1807.96179	-114.86306	966.03656	1789.17310	-229.64740	886.80139	1814.15527	-179.68179	863.14124	1824.29370	-249.07437	815.33679	1376.48950	-40.73265	1394.17029	1274.83728	23.72486	1196.62866	1272.43555	27.99593	1071.33386	1240.95044	1.24263	953.81049	1258.95313	-79.45536	837.55524	1219.56641	-36.56849	838.13165	1222.56165	-74.08598	760.98010	1617.02466	-94.67837	930.48370	1400.76245	-100.43378	941.29913	1557.50745	90.21819	941.60181	1411.92126	82.81676	945.98541	1653.42554	-65.77918	595.37262	1630.60193	-58.48993	461.70950	1634.08838	2.24866	281.24362	1577.54944	48.86564	69.70015	1525.64429	97.05484	41.67745	1580.30359	-97.08945	32.43602	1325.97729	-142.48039	622.01428	1345.20825	-187.71477	469.68915	1338.85986	-98.92246	316.22202	1382.40076	-27.29402	121.73653	1437.19421	23.16427	91.84862	1370.68713	-149.10158	50.78803	1495.51831	-147.71310	1701.39160	-3102.11206	1972.99939	1024.05042	-3140.73853	2012.49512	1021.95593			 
